<svg width="124" height="46" viewBox="0 0 124 46" fill="none" xmlns="http://www.w3.org/2000/svg">
<path d="M94.5556 27.0054C94.4472 27.3051 94.3315 27.5995 94.2051 27.8975C94.3297 27.5995 94.4472 27.3087 94.5556 27.0054Z" fill="#0A52BE"/>
<path d="M95.5512 22.8213C95.5151 23.1407 95.4681 23.4565 95.4121 23.7723C95.4663 23.4565 95.5132 23.1407 95.5512 22.8213Z" fill="#0A52BE"/>
<path d="M95.6857 19.8147C95.6857 19.5078 95.6608 19.2027 95.6377 18.8958C95.6626 19.1937 95.6785 19.4989 95.6857 19.8147Z" fill="#0A52BE"/>
<path d="M95.6904 20.9012C95.6904 20.6389 95.6904 20.3748 95.6904 20.1125C95.6993 20.3748 95.6975 20.6371 95.6904 20.9012Z" fill="#0A52BE"/>
<g clip-path="url(#clip0_0_1330)">
<path d="M33.1141 36.1542C32.7611 33.0253 32.6183 29.8759 32.6867 26.7276V19.2781C32.6239 16.1718 32.7611 13.0646 33.0972 9.97614C33.3967 8.14261 34.251 6.44702 35.5433 5.12122V2.92886C35.5433 1.97713 34.5199 1.22935 33.2547 1.22935H22.8011C21.5415 1.22935 20.5181 1.99979 20.5181 2.92886V16.8025H16.0196V2.91753C16.0196 1.9658 14.9961 1.21802 13.7365 1.21802H3.28302C2.02342 1.21802 1 1.98846 1 2.91753V43.0712C1 44.0229 2.02342 44.7991 3.28302 44.7991H13.7422C15.0018 44.7991 16.0252 44.0229 16.0252 43.0712V26.484H20.5237V43.0712C20.5237 44.0229 21.5472 44.7991 22.8068 44.7991H33.2547C34.5199 44.7991 35.5433 44.0229 35.5433 43.0712V40.8619C34.2802 39.5758 33.4333 37.9346 33.1141 36.1542Z" fill="#0A52BE"/>
<path d="M66.8473 5.7216C66.6096 5.42119 66.3562 5.13375 66.0881 4.86052C64.4227 3.23393 62.3792 2.05366 60.1444 1.42751C57.4402 0.632853 54.633 0.250943 51.8164 0.29451C48.9166 0.242189 46.0266 0.649369 43.2523 1.50115C41.0516 2.15757 39.0463 3.35254 37.4154 4.97948C36.0564 6.32892 35.1584 8.07871 34.8513 9.97603C34.5122 13.0643 34.3751 16.1716 34.4408 19.278V26.7389C34.4408 31.2256 34.5832 34.3677 34.8681 36.1654C35.2096 38.0707 36.1476 39.8157 37.5448 41.145C39.2088 42.7706 41.2502 43.9508 43.4829 44.578C46.1891 45.3722 48.9981 45.7541 51.8164 45.711C54.7167 45.7636 57.607 45.3544 60.3806 44.4987C62.5786 43.8426 64.5816 42.6498 66.2118 41.026C66.4358 40.7935 66.6479 40.5496 66.8473 40.2953V5.7216Z" stroke="#0A52BE" stroke-miterlimit="10"/>
<path d="M39.0012 5.38752C40.4578 3.93516 42.2486 2.86863 44.2139 2.28309C46.6823 1.5156 49.2561 1.14845 51.839 1.1954C54.3561 1.1609 56.864 1.50847 59.2784 2.22643C61.27 2.7845 63.0874 3.84521 64.5586 5.30821C64.8111 5.57811 65.0442 5.86587 65.2559 6.16929C65.2559 6.25427 65.2559 9.75526 65.2559 9.91955V34.6927C65.2559 34.9306 65.2559 39.7176 65.2278 39.8252C65.0575 40.0817 64.8696 40.3259 64.6655 40.556C63.2265 42.026 61.4406 43.1039 59.4753 43.6888C56.9942 44.4595 54.4066 44.8249 51.8108 44.7708C49.294 44.807 46.786 44.4614 44.3713 43.7454C42.378 43.1845 40.5591 42.122 39.0855 40.658C37.7716 39.3178 36.9301 37.5805 36.6901 35.7124C36.3889 32.6708 36.2649 29.614 36.3189 26.5577V19.3291C36.2694 16.3129 36.3876 13.2963 36.6732 10.2934C36.6732 10.2141 36.6732 10.1122 36.7126 10.0385C36.9752 8.28563 37.7754 6.65939 39.0012 5.38752V5.38752Z" stroke="#0A52BE" stroke-miterlimit="10"/>
<path d="M40.5869 5.8124C41.8573 4.53908 43.4198 3.60118 45.1361 3.08186C47.3037 2.40568 49.5646 2.08248 51.8333 2.12447C54.0465 2.09359 56.2515 2.40111 58.3731 3.03654C60.1246 3.52636 61.7182 4.46972 62.9954 5.77275C63.2363 6.03468 63.4493 6.3214 63.6308 6.62817C63.6645 6.80378 63.6814 9.94786 63.6814 10.2764V34.3755C63.6814 34.8513 63.6814 39.1511 63.6195 39.3663C63.4654 39.624 63.2905 39.8684 63.0966 40.0971C61.8502 41.4119 60.2837 42.3749 58.553 42.89C56.371 43.5814 54.0922 43.9124 51.8052 43.87C49.5879 43.9024 47.3786 43.5929 45.2542 42.9523C43.5015 42.4584 41.9066 41.5135 40.6263 40.2104C39.3997 38.858 38.6574 37.1311 38.5176 35.3045C38.2609 32.351 38.152 29.3863 38.1914 26.4218V19.3915C38.1914 16.1058 38.2983 11.9929 38.5007 10.622C38.5007 10.5597 38.5007 10.4407 38.5345 10.3727C38.7038 8.66705 39.425 7.06471 40.5869 5.8124V5.8124Z" stroke="#0A52BE" stroke-miterlimit="10"/>
<path d="M42.1675 6.2484C43.2684 5.1501 44.62 4.34087 46.1038 3.89175C47.9692 3.30906 49.9149 3.02986 51.8675 3.06466C53.7711 3.03909 55.6674 3.30653 57.4907 3.85776C59 4.28157 60.3689 5.10514 61.4551 6.24274C61.6754 6.50653 61.8642 6.79554 62.0174 7.10382C62.068 7.36441 62.0905 10.1516 62.0905 10.6501V34.0693C62.0905 34.7831 62.0624 38.6013 62.0006 38.9243C61.8681 39.1803 61.7118 39.4231 61.5338 39.6494C60.4764 40.8067 59.128 41.6543 57.6313 42.1023C55.746 42.7109 53.7738 43.0018 51.7944 42.9634C49.8774 42.9921 47.9674 42.7227 46.1319 42.1647C44.6217 41.7332 43.2519 40.9064 42.1619 39.7684C41.1104 38.6014 40.5143 36.9698 40.3344 34.8964C40.1544 33.7634 40.0645 29.0954 40.0645 26.2913V19.4932C40.0645 16.757 40.1544 12.1287 40.3231 10.9957C40.3231 10.939 40.3231 10.8031 40.3231 10.7521C40.4156 9.08415 41.0657 7.4968 42.1675 6.2484V6.2484Z" stroke="#0A52BE" stroke-miterlimit="10"/>
<path d="M43.7533 6.6565C44.6661 5.73499 45.7901 5.05404 47.026 4.67374C48.5857 4.17706 50.2153 3.93979 51.8507 3.97127C53.4583 3.9461 55.0598 4.1755 56.5967 4.65108C57.866 5.00763 59.0125 5.7116 59.9087 6.68483C60.1144 6.94607 60.2846 7.23374 60.4148 7.54024C60.4767 7.89147 60.5104 10.3218 60.5104 10.9846V33.7297C60.5104 34.6814 60.4711 38.0124 60.3923 38.4429C60.2826 38.7004 60.143 38.9438 59.9762 39.1681C59.1113 40.166 57.9849 40.8983 56.726 41.2811C55.137 41.8054 53.4718 42.0562 51.8001 42.0232C50.1847 42.0583 48.5739 41.8385 47.026 41.3718C45.755 41.0031 44.608 40.2921 43.7083 39.3154C42.803 38.273 42.3081 36.6471 42.1619 34.4831C42.0213 33.588 41.9482 28.3932 41.9482 26.1499V19.5161C41.9482 17.3294 42.0157 12.1969 42.1563 11.2848C42.1563 11.2452 42.1563 11.0922 42.1563 11.0469C42.3362 9.08113 42.8592 7.60256 43.7533 6.6565Z" stroke="#0A52BE" stroke-miterlimit="10"/>
<path d="M45.339 7.08127C46.0726 6.33519 46.976 5.78094 47.9707 5.46674C49.2299 5.06314 50.5465 4.87174 51.8676 4.90023C53.1715 4.88002 54.4702 5.0713 55.7138 5.46674C56.742 5.76506 57.6634 6.35502 58.368 7.16624C58.5584 7.429 58.7082 7.71934 58.8122 8.02734C58.891 8.46354 58.9303 10.5426 58.9303 11.3697V33.435C58.9303 34.6246 58.8797 37.4685 58.7841 38.0066C58.6962 38.2632 58.5752 38.507 58.4242 38.7318C57.7466 39.5685 56.839 40.1853 55.8151 40.5049C54.5229 40.9464 53.1642 41.1573 51.8001 41.1281C50.483 41.1519 49.1708 40.9606 47.9145 40.5616C46.8853 40.2619 45.9625 39.6723 45.2547 38.8621C44.5012 37.9387 44.1301 36.3185 43.9951 34.0638C43.8883 33.3897 43.832 27.6906 43.832 26.0081V19.5783C43.832 17.9355 43.8826 12.2988 43.9895 11.6473C43.9839 11.57 43.9839 11.4923 43.9895 11.415C44.1132 9.34161 44.563 7.9027 45.339 7.08127Z" stroke="#0A52BE" stroke-miterlimit="10"/>
<path d="M46.9187 7.50051C47.4735 6.93166 48.1564 6.50607 48.9093 6.25987C50.8348 5.66305 52.8938 5.66305 54.8193 6.25987C55.6022 6.49487 56.2974 6.96048 56.8155 7.59681C56.9875 7.85954 57.1166 8.14835 57.1979 8.45224C57.3032 9.52899 57.3501 10.6107 57.3385 11.6926V33.0838C57.3559 34.5644 57.2977 36.0449 57.1642 37.5195C57.0965 37.7723 56.9943 38.0144 56.8605 38.2389C56.3688 38.9092 55.6833 39.4099 54.898 39.6722C53.9008 40.0302 52.8468 40.2011 51.7884 40.1764C50.7716 40.1967 49.7585 40.0454 48.7912 39.7288C48.0042 39.4871 47.307 39.0136 46.7894 38.3692C46.1877 37.5591 45.884 35.9559 45.8109 33.6049C45.7435 33.1574 45.7041 26.9429 45.7041 25.8212V19.6407C45.7041 18.5473 45.7378 12.4064 45.8053 11.9475C45.8053 11.9475 45.8053 11.7436 45.8053 11.7266C45.8915 9.61546 46.2627 8.20675 46.9187 7.50051Z" stroke="#0A52BE" stroke-miterlimit="10"/>
<path d="M48.4996 7.94807C48.8755 7.55353 49.3404 7.2562 49.8548 7.08132C50.5054 6.85424 51.1907 6.74492 51.8791 6.75841C52.5778 6.74331 53.2733 6.85658 53.9316 7.09266C54.4691 7.2691 54.9375 7.61211 55.2699 8.0727C55.422 8.33847 55.5303 8.62738 55.5904 8.92813C55.7159 9.96929 55.7704 11.0179 55.7535 12.0665V32.7609C55.777 34.1951 55.7094 35.6294 55.5511 37.055C55.4992 37.3044 55.4161 37.5461 55.3037 37.7744C54.9944 38.2739 54.5297 38.6564 53.9822 38.8621C53.2834 39.142 52.5352 39.275 51.7835 39.253C51.0687 39.2704 50.3565 39.1591 49.6805 38.9244C49.1321 38.7422 48.6581 38.384 48.3309 37.9047C47.8867 37.2079 47.673 35.6387 47.6392 33.1801C47.5999 32.9592 47.583 26.2291 47.583 25.6683V19.7087C47.583 19.1422 47.583 12.5084 47.6336 12.2818C47.6336 12.2818 47.6336 12.0722 47.6336 12.0609C47.6786 9.88552 47.9654 8.51457 48.4996 7.94807Z" stroke="#0A52BE" stroke-miterlimit="10"/>
<path d="M54.1732 32.4381C54.1732 35.0024 54.0289 36.6264 53.7402 37.31C53.459 37.9898 52.8011 38.3353 51.7777 38.3353C50.7543 38.3353 50.147 38.0351 49.8714 37.4459C49.5959 36.8568 49.4609 35.2876 49.4609 32.7609V12.4008C49.4609 10.1575 49.669 8.80546 50.0851 8.34471C50.3188 8.10726 50.6004 7.92317 50.9109 7.8049C51.2213 7.68664 51.5534 7.63697 51.8845 7.65923C52.8142 7.65923 53.4272 7.94248 53.7233 8.50898C54.0195 9.07548 54.1694 10.3728 54.1732 12.4008V32.4381Z" stroke="#0A52BE" stroke-miterlimit="10"/>
<path d="M81.9681 39.5986C81.0871 37.8197 80.6466 35.2969 80.6466 32.0301V30.8971C80.6466 29.9454 81.6701 28.1326 82.9297 28.1326H83.0646V20.8587C82.3678 20.0821 81.7983 19.1986 81.3776 18.2414C80.5246 16.4667 80.1209 14.5069 80.2024 12.5367C80.2024 9.19438 80.7647 6.75086 81.8894 5.2062C82.3046 4.64657 82.7904 4.14381 83.3345 3.71063V2.91753C83.3345 1.9658 82.3167 1.21802 81.0515 1.21802H70.5867C69.3271 1.21802 68.3037 1.98846 68.3037 2.91753V43.0712C68.3037 44.0229 69.3271 44.7991 70.5867 44.7991H81.0403C82.3055 44.7991 83.3233 44.0229 83.3233 43.0712V41.417C82.7705 40.8944 82.312 40.2791 81.9681 39.5986Z" fill="#0A52BE"/>
<path d="M112.468 14.3947H103.083C101.824 14.3947 100.8 13.6186 100.8 12.6669V11.16C100.8 9.64935 100.622 8.68816 100.266 8.27651C100.031 8.04979 99.7497 7.87718 99.442 7.77057C99.1342 7.66396 98.8072 7.62591 98.4834 7.65903C98.1005 7.63159 97.7163 7.69289 97.3606 7.83822C97.0048 7.98356 96.6868 8.20907 96.4309 8.49745C95.9106 9.2329 95.6638 10.1293 95.7337 11.0297C95.6564 12.1796 95.9291 13.3258 96.5153 14.3154C97.0176 15.0708 98.4328 15.9602 100.761 16.9837C107.445 19.9748 111.657 22.4296 113.396 24.3482C115.136 26.2667 116.003 29.3636 116 33.6388C116 36.7508 115.518 39.0414 114.555 40.5105C113.591 41.9796 111.73 43.2108 108.971 44.2041C105.864 45.2617 102.6 45.7715 99.3213 45.711C95.3026 45.711 91.8705 45.1445 89.0252 44.0115C86.1798 42.8785 84.3186 41.415 83.4413 39.6211C82.5641 37.8423 82.1255 35.3194 82.1255 32.0526V30.9196C82.1255 29.9679 83.1433 29.2201 84.4085 29.2201H93.788C95.0533 29.2201 96.0767 29.9962 96.0767 30.9196V34.4999C96.0767 36.1314 96.2679 37.1851 96.639 37.6497C97.0101 38.1142 97.7299 38.3521 98.7252 38.3521C99.1426 38.3867 99.5624 38.3244 99.9522 38.1703C100.342 38.0161 100.692 37.7741 100.974 37.4627C101.515 36.6951 101.774 35.7616 101.706 34.8228C101.706 32.2566 101.244 30.574 100.317 29.7866C99.3887 28.9992 97.0214 27.6792 93.2876 25.8211C90.7352 24.6154 88.2565 23.2572 85.865 21.7536C84.5956 20.8476 83.5617 19.6467 82.8509 18.2526C81.9899 16.48 81.5784 14.52 81.6532 12.5479C81.6532 9.20557 82.2155 6.76206 83.3401 5.2174C84.4648 3.67273 86.2904 2.46608 88.8171 1.59745C91.7718 0.662575 94.8587 0.222417 97.9548 0.294497C101.342 0.214321 104.72 0.694673 107.953 1.71641C110.704 2.67192 112.525 3.87102 113.413 5.31371C114.301 6.7564 114.748 9.21125 114.751 12.6782C114.751 13.613 113.728 14.3947 112.468 14.3947Z" fill="#0A52BE"/>
</g>
<defs>
<clipPath id="clip0_0_1330">
<rect width="115" height="46" fill="white" transform="translate(1)"/>
</clipPath>
</defs>
</svg>
